<svg xmlns="http://www.w3.org/2000/svg" viewBox="0 0 1600 900"><rect width="1600" height="900" fill="#34213f"/><circle cx="800" cy="450" r="320" fill="#c44b82" opacity=".22"/><g fill="#f7b64d" opacity=".4"><circle cx="300" cy="250" r="12"/><circle cx="1250" cy="230" r="10"/><circle cx="350" cy="650" r="8"/><circle cx="1220" cy="670" r="12"/></g><path d="M640 440q0-220 160-220t160 220v100l-55 45v90H695v-90l-55-45Z" fill="#f7b64d"/><g fill="#34213f"><ellipse cx="730" cy="430" rx="42" ry="48"/><ellipse cx="870" cy="430" rx="42" ry="48"/><path d="m800 480-30 55h60Z"/><path d="M725 600h150v22H725Z"/></g><g fill="#c44b82"><circle cx="800" cy="320" r="35"/><circle cx="650" cy="470" r="25"/><circle cx="950" cy="470" r="25"/></g><g stroke="#34213f" stroke-width="10"><path d="M750 580v55m50-55v55m50-55v55"/></g><circle cx="1100" cy="500" r="20" fill="#f7b64d"/><path d="m1100 535-35 55 55 20 35 65m-55-115 60 10m-60 30-60 65" fill="none" stroke="#f7b64d" stroke-width="18"/></svg>