<svg xmlns="http://www.w3.org/2000/svg" viewBox="0 0 1600 900"><rect width="1600" height="900" fill="#211b22"/><circle cx="800" cy="450" r="320" fill="#a92d34" opacity=".22"/><g fill="#ffb45c" opacity=".4"><circle cx="300" cy="250" r="12"/><circle cx="1250" cy="230" r="10"/><circle cx="350" cy="650" r="8"/><circle cx="1220" cy="670" r="12"/></g><path d="M800 275q45-100 100-85l-50 110" fill="none" stroke="#ffb45c" stroke-width="30"/><ellipse cx="800" cy="500" rx="195" ry="170" fill="#ffb45c"/><path d="m680 450 75-35 15 80Zm240 0-75-35-15 80Z M675 550q125 120 250 0l-45 110H720Z" fill="#211b22"/><path d="m1030 510 70 95 70-95Zm70 95v90m-45 0h90" fill="none" stroke="#ffb45c" stroke-width="16"/></svg>