<svg xmlns="http://www.w3.org/2000/svg" viewBox="0 0 1600 900"><rect width="1600" height="900" fill="#172d4a"/><circle cx="800" cy="450" r="320" fill="#265386" opacity=".22"/><g fill="#e7cd7a" opacity=".4"><circle cx="300" cy="250" r="12"/><circle cx="1250" cy="230" r="10"/><circle cx="350" cy="650" r="8"/><circle cx="1220" cy="670" r="12"/></g><path d="M800 540v120m-70 0h140" fill="none" stroke="#e7cd7a" stroke-width="20"/><rect x="574.0" y="330" width="20" height="190" fill="#e7cd7a"/><path d="M584.0 315q-22-30 0-58 22 28 0 58Z" fill="#e7cd7a"/><path d="M584.0 520Q584.0 560 800 560" stroke="#e7cd7a" stroke-width="12" fill="none"/><rect x="628.0" y="330" width="20" height="190" fill="#e7cd7a"/><path d="M638.0 315q-22-30 0-58 22 28 0 58Z" fill="#e7cd7a"/><path d="M638.0 520Q638.0 560 800 560" stroke="#e7cd7a" stroke-width="12" fill="none"/><rect x="682.0" y="330" width="20" height="190" fill="#e7cd7a"/><path d="M692.0 315q-22-30 0-58 22 28 0 58Z" fill="#e7cd7a"/><path d="M692.0 520Q692.0 560 800 560" stroke="#e7cd7a" stroke-width="12" fill="none"/><rect x="736.0" y="330" width="20" height="190" fill="#e7cd7a"/><path d="M746.0 315q-22-30 0-58 22 28 0 58Z" fill="#e7cd7a"/><path d="M746.0 520Q746.0 560 800 560" stroke="#e7cd7a" stroke-width="12" fill="none"/><rect x="790.0" y="270" width="20" height="250" fill="#e7cd7a"/><path d="M800.0 255q-22-30 0-58 22 28 0 58Z" fill="#e7cd7a"/><path d="M800.0 520Q800.0 560 800 560" stroke="#e7cd7a" stroke-width="12" fill="none"/><rect x="844.0" y="330" width="20" height="190" fill="#e7cd7a"/><path d="M854.0 315q-22-30 0-58 22 28 0 58Z" fill="#e7cd7a"/><path d="M854.0 520Q854.0 560 800 560" stroke="#e7cd7a" stroke-width="12" fill="none"/><rect x="898.0" y="330" width="20" height="190" fill="#e7cd7a"/><path d="M908.0 315q-22-30 0-58 22 28 0 58Z" fill="#e7cd7a"/><path d="M908.0 520Q908.0 560 800 560" stroke="#e7cd7a" stroke-width="12" fill="none"/><rect x="952.0" y="330" width="20" height="190" fill="#e7cd7a"/><path d="M962.0 315q-22-30 0-58 22 28 0 58Z" fill="#e7cd7a"/><path d="M962.0 520Q962.0 560 800 560" stroke="#e7cd7a" stroke-width="12" fill="none"/><rect x="1006.0" y="330" width="20" height="190" fill="#e7cd7a"/><path d="M1016.0 315q-22-30 0-58 22 28 0 58Z" fill="#e7cd7a"/><path d="M1016.0 520Q1016.0 560 800 560" stroke="#e7cd7a" stroke-width="12" fill="none"/></svg>